PathFileType	3	(X/Y/Z)	D:\Vicon Database\Healthy Subjects\S0040\Jan. 30, 2020\Static Calibration.trc
DataRate	CameraRate	NumFrames	NumMarkers	Units	OrigDataRate	OrigDataStartFrame	OrigNumFrames
100.0	100.0	4	69	mm	100.0	188	300	
Frame#	Time	sternum_cluster1			sternum_cluster2			sternum_cluster3			left_asis			right_asis			left_psis			right_psis			sacrum_cluster1			sacrum_cluster2			sacrum_cluster3			left_lat_femoral_epicondyle			left_med_femoral_epicondyle			left_anterior_thigh15			left_anterior_thigh25			left_anterior_thigh50			left_lateral_thigh25			left_lateral_thigh50			left_trochanter			left_thigh_cluster1			left_thigh_cluster2			left_thigh_cluster3			left_lateral_tibial_condyle			left_medial_tibial_condyle			left_fibular_head			left_tibial_tuberosity			left_anterior_shank30			left_lateral_malleolus			left_medial_malleolus			left_shank_cluster1			left_shank_cluster2			left_shank_cluster3			left_heel			left_metatarsal2			left_metatarsal5			left_metatarsal1			left_toe_tip			left_foot_cluster1			left_foot_cluster2			left_foot_cluster3			right_lat_femoral_epicondyle			right_med_femoral_epicondyle			right_anterior_thigh15			right_anterior_thigh25			right_anterior_thigh50			right_lateral_thigh25			right_lateral_thigh50			right_trochanter			right_thigh_cluster1			right_thigh_cluster2			right_thigh_cluster3			right_lateral_tibial_condyle			right_medial_tibial_condyle			right_fibular_head			right_tibial_tuberosity			right_lateral_distal_shank			right_anterior_shank30			right_lateral_malleolus			right_medial_malleolus			right_shank_cluster1			right_shank_cluster2			right_shank_cluster3			right_heel			right_metatarsal2			right_metatarsal5			right_metatarsal1			right_toe_tip			right_foot_cluster1			right_foot_cluster2			right_foot_cluster3			
		X1	Y1	Z1	X2	Y2	Z2	X3	Y3	Z3	X4	Y4	Z4	X5	Y5	Z5	X6	Y6	Z6	X7	Y7	Z7	X8	Y8	Z8	X9	Y9	Z9	X10	Y10	Z10	X11	Y11	Z11	X12	Y12	Z12	X13	Y13	Z13	X14	Y14	Z14	X15	Y15	Z15	X16	Y16	Z16	X17	Y17	Z17	X18	Y18	Z18	X19	Y19	Z19	X20	Y20	Z20	X21	Y21	Z21	X22	Y22	Z22	X23	Y23	Z23	X24	Y24	Z24	X25	Y25	Z25	X26	Y26	Z26	X27	Y27	Z27	X28	Y28	Z28	X29	Y29	Z29	X30	Y30	Z30	X31	Y31	Z31	X32	Y32	Z32	X33	Y33	Z33	X34	Y34	Z34	X35	Y35	Z35	X36	Y36	Z36	X37	Y37	Z37	X38	Y38	Z38	X39	Y39	Z39	X40	Y40	Z40	X41	Y41	Z41	X42	Y42	Z42	X43	Y43	Z43	X44	Y44	Z44	X45	Y45	Z45	X46	Y46	Z46	X47	Y47	Z47	X48	Y48	Z48	X49	Y49	Z49	X50	Y50	Z50	X51	Y51	Z51	X52	Y52	Z52	X53	Y53	Z53	X54	Y54	Z54	X55	Y55	Z55	X56	Y56	Z56	X57	Y57	Z57	X58	Y58	Z58	X59	Y59	Z59	X60	Y60	Z60	X61	Y61	Z61	X62	Y62	Z62	X63	Y63	Z63	X64	Y64	Z64	X65	Y65	Z65	X66	Y66	Z66	X67	Y67	Z67	X68	Y68	Z68	X69	Y69	Z69	
188	1.87	785.43262	1473.766	-231.25682	771.91724	1446.4998	-223.81305	775.09106	1449.9133	-261.6257	754.13733	1078.8406	-122.86269	765.67004	1086.3691	-371.16162	922.01196	1090.4591	-165.55179	931.05804	1096.0171	-282.74203	940.20984	1143.1407	-227.30066	945.44812	1118.1606	-239.69804	945.47565	1111.0037	-200.71104	872.03082	553.35181	-79.961021	859.43042	541.57758	-214.80396	765.86652	614.65881	-138.26974	733.87616	699.97577	-129.42365	719.68536	840.84271	-115.67713	845.47919	706.98804	-63.401707	816.64728	850.27539	-43.326908	816.8028	972.06531	-56.772854	821.50208	808.3335	-38.649857	828.0072	779.33246	-39.307114	790.22852	784.81232	-39.07407	878.01489	500.65512	-76.6558	871.40692	486.07648	-199.94714	878.71686	472.49072	-71.606522	821.565	461.69623	-124.80309	820.23749	216.3235	-123.21676	859.039	98.565033	-94.189636	841.76257	108.60499	-172.07677	815.78149	412.92078	-148.76146	808.99487	386.28168	-138.9782	821.49463	383.71997	-175.62587	926.88574	61.329483	-133.49297	708.93738	68.796471	-116.28096	735.3219	57.213696	-77.514984	713.6908	60.449127	-159.81447	657.31848	60.579731	-110.63528	772.15387	117.17166	-115.17859	747.87067	102.8159	-103.3438	741.79712	107.88264	-141.14818	853.86426	538.78442	-385.97009	846.74329	539.54639	-252.12244	761.7627	615.51898	-328.71417	733.25269	697.47552	-326.3566	720.51971	830.49573	-339.1037	833.25897	698.42285	-410.54492	818.94385	844.2691	-437.19638	822.96228	973.66736	-426.27173	831.69305	793.49463	-441.35779	821.76642	766.57404	-437.7605	860.80518	767.24567	-434.0463	864.08447	499.4173	-385.8642	850.02728	484.72781	-266.55261	871.27435	472.7384	-389.79462	815.21082	460.18286	-346.16135	874.66052	202.92738	-386.47675	828.16052	217.0515	-342.01749	870.17511	98.238464	-374.1651	855.0874	107.82072	-293.94244	822.95166	397.95877	-292.45984	827.09955	369.39581	-286.3299	804.05365	369.68106	-315.82556	940.70331	61.795925	-340.38632	721.72156	68.822205	-341.95407	756.06335	55.583431	-392.12607	731.37592	51.565166	-300.52924	670.92853	56.324013	-351.61356	779.37561	115.6489	-337.32629	754.79242	101.90141	-329.57397	755.62164	106.94572	-366.7551
189	1.88	785.48175	1473.7549	-231.31552	771.9624	1446.4849	-223.86855	775.16809	1449.9049	-261.69406	754.21167	1078.8568	-122.85801	765.81451	1086.3546	-371.17618	922.12598	1090.5049	-165.5843	931.19568	1096.0414	-282.81104	940.2865	1143.1563	-227.36256	945.55286	1118.1449	-239.77525	945.57617	1111.0869	-200.73117	872.07904	553.35919	-79.969704	859.5614	541.5332	-214.7794	765.92834	614.66339	-138.26132	733.94397	699.98804	-129.41273	719.75354	840.86615	-115.65732	845.59619	706.97797	-63.442947	816.7359	850.29346	-43.329311	816.92841	972.06897	-56.805092	821.59973	808.33551	-38.65823	828.12122	779.33154	-39.331261	790.35278	784.78705	-39.116871	878.09094	500.63135	-76.667465	871.3847	486.09412	-199.97462	878.79553	472.48453	-71.626114	821.6106	461.69302	-124.79893	820.289	216.28406	-123.18548	859.06897	98.536003	-94.177628	841.79675	108.57741	-172.10172	815.78326	412.93961	-148.74031	809.04858	386.29663	-138.95914	821.54297	383.7226	-175.62607	926.92706	61.359806	-133.51785	708.93579	68.792892	-116.26138	735.41272	57.140442	-77.584259	713.71063	60.446625	-159.81119	657.34741	60.548714	-110.6343	772.17358	117.16584	-115.18617	747.92261	102.81615	-103.37225	741.79901	107.90704	-141.13452	853.99786	538.79388	-386.01117	846.85541	539.52374	-252.13326	761.85486	615.51971	-328.69818	733.33929	697.46954	-326.35223	720.61676	830.49451	-339.09732	833.25299	698.45624	-410.59875	819.04224	844.28571	-437.21439	823.12451	973.65454	-426.27798	831.84204	793.50513	-441.35651	821.85364	766.57361	-437.76065	860.87671	767.21832	-434.15271	864.17828	499.40509	-385.83609	850.099	484.73425	-266.54926	871.36224	472.70853	-389.8024	815.22717	460.21252	-346.1275	874.63812	202.9319	-386.46942	828.17395	217.0652	-341.96735	870.54767	98.175301	-374.24918	855.09503	107.8578	-293.92816	823.05402	397.9104	-292.47571	827.16919	369.3851	-286.31921	804.07849	369.69226	-315.77417	940.6308	61.925407	-340.49561	721.73132	68.822052	-341.93597	756.05951	55.585537	-392.08945	731.43512	51.549118	-300.55969	670.96008	56.325943	-351.60754	779.42603	115.6301	-337.30368	754.81018	101.88807	-329.57642	755.64447	106.95155	-366.73453
190	1.89	785.48706	1473.7594	-231.3632	771.9834	1446.4927	-223.92017	775.18036	1449.9028	-261.77005	754.2832	1078.8678	-122.89	765.82086	1086.4006	-371.17584	922.20941	1090.608	-165.69707	931.29309	1096.1172	-282.78851	940.37189	1143.2327	-227.37199	945.64862	1118.2195	-239.82784	945.64728	1111.1267	-200.75426	872.13776	553.36169	-79.993179	858.4541	541.57385	-215.30939	765.97418	614.66217	-138.28113	734.005	700.00562	-129.42847	719.84949	840.88147	-115.68193	845.64075	706.99451	-63.478523	816.8244	850.28143	-43.36985	817.02795	972.07104	-56.82563	821.65625	808.34796	-38.675514	828.18884	779.33307	-39.358398	790.43323	784.79974	-39.136066	878.11957	500.63641	-76.703903	871.388	486.13345	-199.98528	878.82886	472.48398	-71.657501	821.64111	461.7019	-124.82663	820.28741	216.30289	-123.19717	859.05463	98.566978	-94.189972	841.77283	108.59571	-172.09647	815.81616	412.94754	-148.75807	809.0647	386.2926	-138.97992	821.53967	383.71552	-175.63474	926.88892	61.400585	-133.54843	708.909	68.824051	-116.26149	735.39337	57.162964	-77.591866	713.66901	60.475113	-159.80116	657.41968	60.519501	-110.7235	772.17542	117.18967	-115.17568	747.93213	102.79165	-103.40984	741.81879	107.88885	-141.1436	854.00745	538.80975	-386.00958	846.91003	539.54871	-252.13489	761.89624	615.51294	-328.69766	733.41223	697.4762	-326.35645	720.68414	830.49902	-339.09631	833.3244	698.50116	-410.55737	819.08136	844.32086	-437.24661	823.13092	973.6922	-426.32452	831.85107	793.52319	-441.42642	821.93372	766.56512	-437.73624	860.88019	767.23773	-434.18805	864.20313	499.44995	-385.83347	850.19104	484.73206	-266.56729	871.36115	472.75156	-389.78421	815.25006	460.23962	-346.11285	874.52264	202.99619	-386.5528	828.14105	217.11192	-341.96207	870.50702	98.190857	-374.25433	855.08948	107.82793	-293.94031	823.09222	397.93866	-292.44696	827.21478	369.40494	-286.31729	804.1358	369.71371	-315.7825	940.57971	61.935307	-340.51678	721.6955	68.879913	-341.9194	756.0141	55.618099	-392.07104	731.44464	51.544949	-300.58917	670.91125	56.350845	-351.60452	779.35339	115.68781	-337.30368	754.79828	101.90617	-329.58063	755.67029	106.93883	-366.7103
191	1.9	785.50635	1473.7537	-231.42465	772.00592	1446.4656	-223.99713	775.21338	1449.8896	-261.83109	754.32147	1078.8818	-122.90533	765.91119	1086.3763	-371.20367	922.27295	1090.5662	-165.66542	931.56232	1096.4304	-282.54089	940.4516	1143.2571	-227.36931	945.69171	1118.2465	-239.78914	945.72522	1111.1183	-200.7326	872.16266	553.36804	-80.000633	859.54834	541.5744	-214.84802	766.02344	614.67108	-138.30513	734.047	700.013	-129.45871	719.92242	840.88477	-115.70244	845.66583	707.00244	-63.447765	816.88239	850.28992	-43.395966	817.08209	972.1026	-56.845726	821.71033	808.36346	-38.720905	828.23627	779.34918	-39.36636	790.48401	784.83673	-39.145332	878.1416	500.65268	-76.725945	871.46613	486.12003	-200.03168	878.82031	472.5043	-71.681877	821.65936	461.70593	-124.86864	820.26147	216.34204	-123.21003	859.01526	98.582199	-94.200417	841.76575	108.6176	-172.10072	815.8714	412.9147	-148.7971	809.06628	386.31174	-138.99452	821.52142	383.74655	-175.66541	926.87769	61.427681	-133.51239	708.89771	68.832901	-116.27529	735.4054	57.159611	-77.575523	713.6488	60.48769	-159.81046	657.32751	60.584431	-110.65276	772.1449	117.18855	-115.19717	747.87	102.81424	-103.41597	741.79517	107.89719	-141.15456	853.12494	538.5968	-386.55252	846.97382	539.55823	-252.1219	761.95331	615.52661	-328.71655	733.44214	697.50671	-326.36331	720.74146	830.50958	-339.1246	833.46802	698.466	-410.5192	819.16504	844.31946	-437.23709	823.16382	973.6991	-426.34418	831.87665	793.55652	-441.40771	822.04205	766.58289	-437.80353	860.93707	767.2489	-434.18726	864.23859	499.42795	-385.86829	850.23108	484.74603	-266.57138	871.39172	472.77063	-389.79861	815.29407	460.24734	-346.13107	874.49481	203.00632	-386.55945	828.16833	217.1033	-341.97873	870.47931	98.215141	-374.2738	855.69232	107.22015	-294.56784	823.12427	397.94043	-292.48804	827.21967	369.42459	-286.32822	804.1543	369.71442	-315.80942	940.5741	62.029598	-340.44708	721.67816	68.872505	-341.93411	756.00964	55.627441	-392.078	731.43884	51.533024	-300.60095	670.90021	56.356331	-351.61328	779.36707	115.67538	-337.30206	754.77472	101.91685	-329.59558	755.66833	106.9206	-366.72534
